<svg width="20" height="20" viewBox="0 0 20 20" fill="none" xmlns="http://www.w3.org/2000/svg">
<g id="Outline/Files/Copy">
<g id="Icon">
<path d="M7.50016 2.70834C4.8538 2.70834 2.7085 4.85365 2.7085 7.50001V13.4224C2.7085 13.7676 2.98832 14.0474 3.3335 14.0474C3.67867 14.0474 3.9585 13.7676 3.9585 13.4224V7.50001C3.9585 5.544 5.54415 3.95834 7.50016 3.95834H13.3442C13.6894 3.95834 13.9692 3.67852 13.9692 3.33334C13.9692 2.98817 13.6894 2.70834 13.3442 2.70834H7.50016Z" fill="url(#paint0_linear_608_10331)"/>
<path fill-rule="evenodd" clip-rule="evenodd" d="M15.3356 5.66106C12.6348 5.35921 9.86552 5.35921 7.16473 5.66106C6.39533 5.74705 5.77705 6.35255 5.68637 7.12791C5.36605 9.86664 5.36605 12.6334 5.68637 15.3721C5.77705 16.1475 6.39533 16.753 7.16473 16.839C9.86552 17.1408 12.6348 17.1408 15.3356 16.839C16.105 16.753 16.7233 16.1475 16.814 15.3721C17.1343 12.6334 17.1343 9.86664 16.814 7.12791C16.7233 6.35255 16.105 5.74705 15.3356 5.66106ZM7.30357 6.90333C9.91209 6.61178 12.5883 6.61178 15.1968 6.90333C15.3946 6.92543 15.5501 7.08185 15.5724 7.27312C15.8815 9.91537 15.8815 12.5846 15.5724 15.2269C15.5501 15.4182 15.3946 15.5746 15.1968 15.5967C12.5883 15.8882 9.91209 15.8882 7.30357 15.5967C7.10578 15.5746 6.95027 15.4182 6.9279 15.2269C6.61887 12.5846 6.61887 9.91537 6.9279 7.27312C6.95027 7.08185 7.10578 6.92543 7.30357 6.90333Z" fill="url(#paint1_linear_608_10331)"/>
</g>
</g>
<defs>
<linearGradient id="paint0_linear_608_10331" x1="-20.6977" y1="-45.1818" x2="57.718" y2="8.43425" gradientUnits="userSpaceOnUse">
<stop stop-color="#6F133F"/>
<stop offset="1" stop-color="#332668"/>
</linearGradient>
<linearGradient id="paint1_linear_608_10331" x1="-20.6977" y1="-45.1818" x2="57.718" y2="8.43425" gradientUnits="userSpaceOnUse">
<stop stop-color="#6F133F"/>
<stop offset="1" stop-color="#332668"/>
</linearGradient>
</defs>
</svg>
