<svg width="32" height="32" viewBox="0 0 32 32" fill="none" xmlns="http://www.w3.org/2000/svg">
<g id="Instagram">
<g clip-path="url(#clip0_590_5771)">
<rect width="32" height="32" rx="16" fill="white"/>
<path id="Subtract" fill-rule="evenodd" clip-rule="evenodd" d="M100 0H0V100H100V0ZM16.1025 13.1846C14.4931 13.1846 13.1888 14.4888 13.1888 16.0973C13.1888 17.7057 14.4931 19.0099 16.1025 19.0099C17.7119 19.0099 19.0169 17.7057 19.0169 16.0973C19.0169 14.4888 17.7119 13.1846 16.1025 13.1846ZM16.1025 20.5837C13.6231 20.5837 11.6133 18.5752 11.6133 16.0973C11.6133 13.6194 13.6231 11.6108 16.1025 11.6108C18.5819 11.6108 20.5917 13.6194 20.5917 16.0973C20.5917 18.5752 18.5819 20.5837 16.1025 20.5837ZM19.8969 12.0155C19.7817 11.843 19.7202 11.6403 19.7203 11.4329C19.7205 11.1549 19.8312 10.8884 20.0279 10.6919C20.2246 10.4954 20.4913 10.385 20.7694 10.3848H20.7698C20.9773 10.3849 21.1801 10.4465 21.3526 10.5618C21.5251 10.6771 21.6595 10.8409 21.7388 11.0325C21.8181 11.2241 21.8388 11.4349 21.7983 11.6383C21.7577 11.8416 21.6577 12.0284 21.5109 12.175C21.3642 12.3216 21.1772 12.4213 20.9737 12.4617C20.7701 12.5021 20.5592 12.4812 20.3675 12.4018C20.1759 12.3224 20.0121 12.1879 19.8969 12.0155ZM10.947 22.9086C11.2549 23.0285 11.7182 23.1704 12.5705 23.2092C13.4918 23.2516 13.7678 23.26 16.1025 23.26C18.4372 23.26 18.714 23.2516 19.6355 23.2092C20.4879 23.1705 20.9513 23.0286 21.2591 22.9086C21.6672 22.7498 21.9589 22.5604 22.2647 22.2551C22.5704 21.9498 22.7597 21.6587 22.9186 21.2508C23.0378 20.9431 23.1805 20.4801 23.2193 19.6282C23.2617 18.7065 23.2702 18.4306 23.2702 16.0973C23.2702 13.7641 23.2617 13.4882 23.2193 12.5664C23.1806 11.7146 23.0386 11.2514 22.9186 10.9439C22.7597 10.536 22.5708 10.2445 22.2647 9.93889C21.9585 9.6333 21.6672 9.44345 21.2591 9.28534C20.9504 9.16652 20.4879 9.02358 19.6355 8.98478C18.7132 8.94312 18.4361 8.93397 16.1025 8.93397C13.7689 8.93397 13.4921 8.94242 12.5705 8.98478C11.7182 9.02351 11.2548 9.1654 10.947 9.28534C10.5381 9.44345 10.2472 9.63288 9.94142 9.93889C9.63564 10.2449 9.44638 10.536 9.28748 10.9439C9.16858 11.2523 9.02555 11.7146 8.98674 12.5664C8.94505 13.4882 8.93589 13.7641 8.93589 16.0973C8.93589 18.4306 8.94435 18.7073 8.98674 19.6282C9.02548 20.4801 9.16746 20.9432 9.28748 21.2508C9.44568 21.6587 9.63522 21.9495 9.94142 22.2551C10.2476 22.5607 10.5388 22.7498 10.947 22.9086ZM10.3761 7.81874C10.9315 7.60276 11.5675 7.45527 12.4981 7.41291C13.4308 7.36986 13.729 7.36 16.1032 7.36C18.4774 7.36 18.7754 7.37055 19.7076 7.41291C20.6376 7.45457 21.2732 7.60276 21.8296 7.81874C22.4038 8.04179 22.8918 8.34025 23.3776 8.82653C23.8634 9.31281 24.1622 9.79979 24.386 10.3743C24.6021 10.9293 24.7497 11.5649 24.7921 12.4951C24.8345 13.4267 24.8443 13.7245 24.8443 16.0973C24.8443 18.47 24.8345 18.7672 24.7921 19.6995C24.7504 20.6296 24.6021 21.2648 24.386 21.8202C24.1622 22.3947 23.8642 22.8825 23.3776 23.368C22.891 23.8535 22.4038 24.1521 21.8289 24.3758C21.2732 24.5918 20.6376 24.7393 19.7069 24.7816C18.7747 24.8247 18.4767 24.8345 16.1025 24.8345C13.7283 24.8345 13.4308 24.824 12.4981 24.7816C11.5675 24.7393 10.9325 24.5918 10.3761 24.3758C9.80091 24.1521 9.31392 23.8533 8.82741 23.368C8.34091 22.8827 8.0422 22.3947 7.81902 21.8202C7.6029 21.2648 7.45533 20.6297 7.41294 19.6995C7.36986 18.7679 7.36 18.47 7.36 16.0973C7.36 13.7245 7.36986 13.4267 7.41294 12.4951C7.45533 11.5649 7.6029 10.9297 7.81902 10.3743C8.0422 9.79944 8.34084 9.31205 8.82741 8.82653C9.31399 8.34102 9.80091 8.04179 10.3761 7.81874Z" fill="url(#paint0_linear_590_5771)"/>
</g>
</g>
<defs>
<linearGradient id="paint0_linear_590_5771" x1="98.078" y1="100" x2="-1.922" y2="-2.69172e-06" gradientUnits="userSpaceOnUse">
<stop stop-color="#FBE18A"/>
<stop offset="0.21" stop-color="#FCBB45"/>
<stop offset="0.38" stop-color="#F75274"/>
<stop offset="0.52" stop-color="#D53692"/>
<stop offset="0.74" stop-color="#8F39CE"/>
<stop offset="1" stop-color="#5B4FE9"/>
</linearGradient>
<clipPath id="clip0_590_5771">
<rect width="32" height="32" rx="16" fill="white"/>
</clipPath>
</defs>
</svg>
