<svg width="32" height="32" viewBox="0 0 32 32" fill="none" xmlns="http://www.w3.org/2000/svg">
<g id="Twitter">
<g clip-path="url(#clip0_590_5775)">
<rect width="32" height="32" rx="16" fill="white"/>
<path id="Subtract" fill-rule="evenodd" clip-rule="evenodd" d="M100 0H0V100H100V0ZM22.016 11.8323C22.5369 11.7542 23.0455 11.6092 23.5293 11.401C23.5675 11.3849 23.5836 11.3746 23.5904 11.3789C23.5954 11.3821 23.5954 11.3929 23.5954 11.4149C23.5997 11.5059 23.5699 11.5952 23.5119 11.6654C23.1765 12.136 22.7746 12.5555 22.3187 12.9107C22.3067 12.9196 22.293 12.9287 22.2788 12.9382C22.2146 12.981 22.1378 13.0322 22.1378 13.109C22.1378 15.5789 21.5047 18.0453 19.7027 19.8334C17.4102 22.1119 13.9733 22.7311 10.919 21.8893C10.3292 21.7206 9.75987 21.4873 9.22135 21.1935C9.04046 21.0961 8.86652 20.9953 8.69259 20.8805C8.65432 20.8457 8.61954 20.8074 8.65432 20.79C8.68911 20.7726 8.72042 20.7691 8.85609 20.79C9.71627 20.8665 10.5828 20.7549 11.3955 20.463C11.4319 20.4505 11.4718 20.4371 11.5145 20.4227C11.9945 20.2607 12.831 19.9785 13.0514 19.5759L13.0723 19.5551C12.9966 19.5383 12.9261 19.5316 12.8576 19.5251C12.8126 19.5209 12.7685 19.5167 12.7244 19.5098C11.9104 19.2733 10.8007 18.8489 10.2893 17.4574C10.258 17.3774 10.2893 17.3322 10.3728 17.3496C10.7605 17.4021 11.1543 17.3904 11.5382 17.3148C11.4033 17.288 11.2715 17.2472 11.1451 17.193C10.6264 16.9833 10.1728 16.6397 9.83047 16.1972C9.4882 15.7546 9.26959 15.2292 9.197 14.6744C9.18714 14.5587 9.18714 14.4423 9.197 14.3266C9.20048 14.2431 9.23875 14.2187 9.30832 14.264C9.67878 14.4526 10.0833 14.565 10.498 14.5944C10.3658 14.4901 10.2406 14.3788 10.1189 14.264C9.21439 13.4047 8.86305 11.6654 9.58662 10.5661C9.64575 10.4826 9.68402 10.4826 9.75707 10.5661C11.4199 12.455 13.4549 13.3351 15.9352 13.7004C15.9979 13.7108 15.9979 13.7004 15.9979 13.6274C15.9248 13.2003 15.9354 12.7632 16.0292 12.3402C16.1428 11.8956 16.3504 11.4804 16.6379 11.1227C16.9113 10.7751 17.2521 10.4864 17.6398 10.2739C18.0336 10.0723 18.4646 9.9539 18.9061 9.92602C19.361 9.8972 19.8166 9.97214 20.2384 10.1452C20.5509 10.2836 20.8396 10.4702 21.0942 10.6983C21.1498 10.7493 21.2021 10.8039 21.2507 10.8618C21.2668 10.8779 21.2869 10.8893 21.309 10.8948C21.331 10.9003 21.3542 10.8997 21.3759 10.8931C22 10.7374 22.6019 10.5036 23.1675 10.1974C23.1797 10.1907 23.1935 10.1871 23.2075 10.1871C23.2215 10.1871 23.2352 10.1907 23.2475 10.1974C23.2638 10.209 23.2582 10.2286 23.2528 10.2475C23.2501 10.2568 23.2475 10.2659 23.2475 10.2739C23.1423 10.6018 22.9771 10.9073 22.7605 11.1749C22.6178 11.3523 22.2595 11.7906 22.016 11.8323Z" fill="#33CCFF"/>
</g>
</g>
<defs>
<clipPath id="clip0_590_5775">
<rect width="32" height="32" rx="16" fill="white"/>
</clipPath>
</defs>
</svg>
